<svg xmlns="http://www.w3.org/2000/svg" version="1.1" xmlns:xlink="http://www.w3.org/1999/xlink" xmlns:svgjs="http://svgjs.dev/svgjs" width="1000" height="214" viewBox="0 0 1000 214"><g transform="matrix(1,0,0,1,-0.6060606060606233,0.568801742919419)"><svg viewBox="0 0 396 85" data-background-color="#ffffff" preserveAspectRatio="xMidYMid meet" height="214" width="1000" xmlns="http://www.w3.org/2000/svg" xmlns:xlink="http://www.w3.org/1999/xlink"><g id="tight-bounds" transform="matrix(1,0,0,1,0.2400000000000091,-0.2259259259259352)"><svg viewBox="0 0 395.52 85.45185185185184" height="85.45185185185184" width="395.52"><g><svg viewBox="0 0 395.52 85.45185185185184" height="85.45185185185184" width="395.52"><g><svg viewBox="0 0 395.52 85.45185185185184" height="85.45185185185184" width="395.52"><g id="textblocktransform"><svg viewBox="0 0 395.52 85.45185185185184" height="85.45185185185184" width="395.52" id="textblock"><g><svg viewBox="0 0 395.52 85.45185185185184" height="85.45185185185184" width="395.52"><g transform="matrix(1,0,0,1,0,0)"><svg width="395.52" viewBox="0.5 -34.25 161.99 35" height="85.45185185185184" data-palette-color="#000000"><path d="M0.85-11.5L5.1-10.35Q4.9-9.65 4.8-8.7 4.7-7.75 4.7-6.9L4.7-6.9Q4.7-5.8 4.93-4.78 5.15-3.75 5.68-2.98 6.2-2.2 7.03-1.73 7.85-1.25 9.05-1.25L9.05-1.25Q10.15-1.25 10.98-1.68 11.8-2.1 12.35-3.15 12.9-4.2 13.15-6 13.4-7.8 13.4-10.5L13.4-10.5 13.4-33.5 16.15-33.5Q16.45-27.4 16.65-23.18 16.85-18.95 16.98-16.2 17.1-13.45 17.18-11.93 17.25-10.4 17.28-9.65 17.3-8.9 17.3-8.7 17.3-8.5 17.3-8.45L17.3-8.45Q17.3-5.8 16.63-4.03 15.95-2.25 14.83-1.2 13.7-0.15 12.2 0.3 10.7 0.75 9.05 0.75L9.05 0.75Q7.3 0.75 5.73 0.38 4.15 0 3-0.98 1.85-1.95 1.18-3.65 0.5-5.35 0.5-8L0.5-8Q0.5-8.85 0.58-9.75 0.65-10.65 0.85-11.5L0.85-11.5ZM45.05 0L40.7 0Q40.7-2.1 40.65-4.08 40.6-6.05 40.5-8L40.5-8 28.45-8Q28.35-6.05 28.3-4.08 28.25-2.1 28.25 0L28.25 0 23.85 0Q23.9-6.9 24.72-13.13 25.55-19.35 26.97-24.05 28.4-28.75 30.32-31.5 32.25-34.25 34.45-34.25L34.45-34.25Q36.7-34.25 38.6-31.5 40.5-28.75 41.92-24.05 43.35-19.35 44.17-13.13 45-6.9 45.05 0L45.05 0ZM34.45-32.25L34.45-32.25Q33.4-32.25 32.45-30.58 31.5-28.9 30.75-25.95 30-23 29.45-18.98 28.9-14.95 28.6-10.25L28.6-10.25 40.35-10.25Q40.05-14.95 39.47-18.98 38.9-23 38.12-25.95 37.35-28.9 36.42-30.58 35.5-32.25 34.45-32.25ZM79.5-32.25L79.5-32.25Q78.59-32.25 77.57-30.63 76.55-29 75.55-26.13 74.55-23.25 73.62-19.35 72.7-15.45 71.95-10.9L71.95-10.9Q72-10.35 72-9.88 72-9.4 72-8.85L72-8.85Q72-6.7 71.92-4.5 71.84-2.3 71.65 0L71.65 0 67.3 0Q67.59-3.45 67.72-6.73 67.84-10 67.84-13L67.84-13Q67.84-17.15 67.59-20.68 67.34-24.2 66.9-26.78 66.45-29.35 65.77-30.8 65.09-32.25 64.25-32.25L64.25-32.25Q63.25-32.25 62.15-30.35 61.05-28.45 59.95-25.15 58.84-21.85 57.9-17.38 56.95-12.9 56.25-7.75L56.25-7.75 56.45 0 52.05 0 52.9-33.5 55.7-33.5 56.05-18.15Q56.84-21.75 57.77-24.7 58.7-27.65 59.75-29.78 60.8-31.9 62-33.08 63.2-34.25 64.59-34.25L64.59-34.25Q65.84-34.25 66.95-33.15 68.05-32.05 68.92-30.05 69.8-28.05 70.42-25.23 71.05-22.4 71.45-19L71.45-19Q72.3-22.4 73.2-25.23 74.09-28.05 75.12-30.05 76.15-32.05 77.32-33.15 78.5-34.25 79.84-34.25L79.84-34.25Q81.55-34.25 82.92-32.3 84.3-30.35 85.25-26.95 86.19-23.55 86.72-18.9 87.25-14.25 87.25-8.85L87.25-8.85Q87.25-6.7 87.17-4.5 87.09-2.3 86.9 0L86.9 0 82.55 0Q82.84-3.45 82.97-6.73 83.09-10 83.09-13L83.09-13Q83.09-17.15 82.84-20.68 82.59-24.2 82.15-26.78 81.69-29.35 81.02-30.8 80.34-32.25 79.5-32.25ZM94.49 0L95.34-33.5 98.14-33.5 98.89 0 94.49 0ZM120.44-9.4L123.89-8.7Q123.19-6.6 122.34-4.88 121.49-3.15 120.47-1.9 119.44-0.65 118.32 0.05 117.19 0.75 115.99 0.75L115.99 0.75Q113.89 0.75 112.04-1.3 110.19-3.35 108.84-6.7 107.49-10.05 106.69-14.33 105.89-18.6 105.89-23.1L105.89-23.1Q105.89-26.75 106.69-28.95 107.49-31.15 108.87-32.33 110.24-33.5 112.09-33.88 113.94-34.25 115.99-34.25L115.99-34.25Q117.94-34.25 119.67-33.93 121.39-33.6 122.74-32.63 124.09-31.65 124.94-29.85 125.79-28.05 126.04-25.05L126.04-25.05 121.74-23.85Q121.69-26.6 121.22-28.28 120.74-29.95 119.97-30.83 119.19-31.7 118.17-31.98 117.14-32.25 115.99-32.25L115.99-32.25Q114.84-32.25 113.79-31.95 112.74-31.65 111.97-30.7 111.19-29.75 110.74-27.95 110.29-26.15 110.29-23.1L110.29-23.1Q110.29-21.05 110.37-19.1 110.44-17.15 110.69-15.25L110.69-15.25 120.44-15.25 120.44-13 110.99-13Q111.34-10.5 111.84-8.35 112.34-6.2 112.99-4.63 113.64-3.05 114.39-2.15 115.14-1.25 115.99-1.25L115.99-1.25Q117.39-1.25 118.52-3.53 119.64-5.8 120.44-9.4L120.44-9.4ZM133.19 0.75L133.19 0.75Q132.64 0.75 132.14 0.33 131.64-0.1 131.29-0.83 130.94-1.55 130.74-2.45 130.54-3.35 130.54-4.3L130.54-4.3Q130.54-5.7 131.31-6.05 132.09-6.4 133.19-6.4L133.19-6.4Q134.29-6.4 135.04-6.05 135.79-5.7 135.79-4.3L135.79-4.3Q135.79-3.35 135.59-2.45 135.39-1.55 135.04-0.83 134.69-0.1 134.21 0.33 133.74 0.75 133.19 0.75ZM151.89-1.25L151.89-1.25Q153.24-1.25 154.39-3.1 155.54-4.95 156.36-8.03 157.19-11.1 157.66-15.03 158.14-18.95 158.14-23.1L158.14-23.1Q158.14-26.15 157.64-27.95 157.14-29.75 156.29-30.7 155.44-31.65 154.31-31.95 153.19-32.25 151.89-32.25L151.89-32.25Q150.64-32.25 149.51-31.95 148.39-31.65 147.54-30.7 146.69-29.75 146.19-27.95 145.69-26.15 145.69-23.1L145.69-23.1Q145.69-18.95 146.16-15.03 146.64-11.1 147.46-8.03 148.29-4.95 149.41-3.1 150.54-1.25 151.89-1.25ZM151.89 0.75L151.89 0.75Q149.69 0.75 147.74-1.3 145.79-3.35 144.36-6.7 142.94-10.05 142.11-14.33 141.29-18.6 141.29-23.1L141.29-23.1Q141.29-26.75 142.14-28.95 142.99-31.15 144.44-32.33 145.89-33.5 147.81-33.88 149.74-34.25 151.89-34.25L151.89-34.25Q154.09-34.25 156.01-33.88 157.94-33.5 159.39-32.33 160.84-31.15 161.66-28.95 162.49-26.75 162.49-23.1L162.49-23.1Q162.49-18.6 161.66-14.33 160.84-10.05 159.41-6.7 157.99-3.35 156.06-1.3 154.14 0.75 151.89 0.75Z" opacity="1" transform="matrix(1,0,0,1,0,0)" fill="#000000" class="wordmark-text-0" data-fill-palette-color="primary" id="text-0"></path></svg></g></svg></g></svg></g></svg></g></svg></g><defs></defs></svg><rect width="395.52" height="85.45185185185184" fill="none" stroke="none" visibility="hidden"></rect></g></svg></g></svg>